<?xml version="1.0" encoding="utf-8"?>
<!-- Generator: Adobe Illustrator 24.0.3, SVG Export Plug-In . SVG Version: 6.00 Build 0)  -->
<svg version="1.1" id="Layer_1" xmlns="http://www.w3.org/2000/svg" xmlns:xlink="http://www.w3.org/1999/xlink" x="0px" y="0px"
	 viewBox="0 0 160 80" style="enable-background:new 0 0 160 80;" xml:space="preserve">
<style type="text/css">
	.st0{fill:#FFFFFF;}
</style>
<g>
	<rect x="63" y="6" class="st0" width="7" height="7"/>
	<rect x="70" y="13" class="st0" width="7" height="6"/>
	<rect x="90" y="6" class="st0" width="7" height="7"/>
	<rect x="63" y="19" class="st0" width="7" height="7"/>
	<rect x="90" y="19" class="st0" width="7" height="7"/>
	<rect x="83" y="13" class="st0" width="7" height="6"/>
	<rect x="70" y="19" class="st0" width="7" height="7"/>
	<rect x="83" y="19" class="st0" width="7" height="7"/>
	<rect x="77" y="19" class="st0" width="6" height="7"/>
	<rect x="97" y="26" class="st0" width="6" height="7"/>
	<rect x="103" y="33" class="st0" width="7" height="6"/>
	<rect x="77" y="26" class="st0" width="6" height="7"/>
	<rect x="57" y="26" class="st0" width="6" height="7"/>
	<rect x="50" y="33" class="st0" width="7" height="6"/>
	<rect x="63" y="26" class="st0" width="7" height="7"/>
	<rect x="90" y="26" class="st0" width="7" height="7"/>
	<rect x="70" y="33" class="st0" width="7" height="6"/>
	<rect x="97" y="33" class="st0" width="6" height="6"/>
	<rect x="77" y="33" class="st0" width="6" height="6"/>
	<rect x="57" y="33" class="st0" width="6" height="6"/>
	<rect x="63" y="33" class="st0" width="7" height="6"/>
	<rect x="90" y="33" class="st0" width="7" height="6"/>
	<rect x="83" y="33" class="st0" width="7" height="6"/>
	<rect x="103" y="39" class="st0" width="7" height="7"/>
	<rect x="50" y="39" class="st0" width="7" height="7"/>
	<rect x="70" y="39" class="st0" width="7" height="7"/>
	<rect x="77" y="39" class="st0" width="6" height="7"/>
	<rect x="63" y="39" class="st0" width="7" height="7"/>
	<rect x="90" y="39" class="st0" width="7" height="7"/>
	<rect x="83" y="39" class="st0" width="7" height="7"/>
	<rect x="70" y="53" class="st0" width="7" height="6"/>
	<rect x="83" y="53" class="st0" width="7" height="6"/>
	<rect x="70" y="59" class="st0" width="7" height="7"/>
	<rect x="63" y="59" class="st0" width="7" height="7"/>
	<rect x="90" y="59" class="st0" width="7" height="7"/>
	<rect x="83" y="59" class="st0" width="7" height="7"/>
	<rect x="103" y="46" class="st0" width="7" height="7"/>
	<rect x="50" y="46" class="st0" width="7" height="7"/>
	<rect x="70" y="46" class="st0" width="7" height="7"/>
	<rect x="77" y="46" class="st0" width="6" height="7"/>
	<rect x="63" y="46" class="st0" width="7" height="7"/>
	<rect x="90" y="46" class="st0" width="7" height="7"/>
	<rect x="83" y="46" class="st0" width="7" height="7"/>
</g>
</svg>
