<?xml version="1.0" encoding="utf-8"?>
<!-- Generator: Adobe Illustrator 24.0.3, SVG Export Plug-In . SVG Version: 6.00 Build 0)  -->
<svg version="1.1" id="Layer_1" xmlns="http://www.w3.org/2000/svg" xmlns:xlink="http://www.w3.org/1999/xlink" x="0px" y="0px"
	 viewBox="0 0 2843.6 1000" style="enable-background:new 0 0 2843.6 1000;" xml:space="preserve">
<style type="text/css">
	.st0{fill:#FFFFFF;}
</style>
<g>
	<g>
		<g>
			<g>
				<path class="st0" d="M1904,47.7H924v904.6h980V47.7z M1828.6,726.2h-376.9V273.8h376.9V726.2z M1828.6,123.1v75.4h-75.4v-75.4
					H1828.6z M1677.8,123.1v75.4h-75.4v-75.4H1677.8z M1527.1,123.1v75.4h-75.4v-75.4H1527.1z M1376.3,123.1v75.4h-75.4v-75.4
					H1376.3z M1225.5,123.1v75.4h-75.4v-75.4H1225.5z M999.4,123.1h75.4v75.4h-75.4V123.1z M999.4,273.8h376.9v452.3H999.4V273.8z
					 M999.4,876.9v-75.4h75.4v75.4H999.4z M1150.2,876.9v-75.4h75.4v75.4H1150.2z M1300.9,876.9v-75.4h75.4v75.4H1300.9z
					 M1451.7,876.9v-75.4h75.4v75.4H1451.7z M1602.5,876.9v-75.4h75.4v75.4H1602.5z M1753.2,876.9v-75.4h75.4v75.4H1753.2z"/>
			</g>
		</g>
	</g>
	<g>
		<g>
			<g>
				<path class="st0" d="M999.4,47.7h-980v904.6h980L999.4,47.7L999.4,47.7z M924,726.2H547.1V273.8H924V726.2z M924,123.1v75.4
					h-75.4v-75.4H924z M773.2,123.1v75.4h-75.4v-75.4H773.2z M622.5,123.1v75.4h-75.4v-75.4H622.5z M471.7,123.1v75.4h-75.4v-75.4
					H471.7z M320.9,123.1v75.4h-75.4v-75.4H320.9z M94.8,123.1h75.4v75.4H94.8V123.1z M94.8,273.8h376.9v452.3H94.8V273.8z
					 M94.8,876.9v-75.4h75.4v75.4H94.8z M245.6,876.9v-75.4H321v75.4H245.6z M396.3,876.9v-75.4h75.4v75.4H396.3z M547.1,876.9
					v-75.4h75.4v75.4H547.1z M697.9,876.9v-75.4h75.4v75.4H697.9z M848.6,876.9v-75.4H924v75.4H848.6z"/>
			</g>
		</g>
	</g>
	<g>
		<g>
			<g>
				<path class="st0" d="M2818.4,47.7h-980v904.6h980V47.7z M2743,726.2h-376.9V273.8H2743V726.2z M2743,123.1v75.4h-75.4v-75.4
					H2743z M2592.2,123.1v75.4h-75.4v-75.4H2592.2z M2441.5,123.1v75.4h-75.4v-75.4H2441.5z M2290.7,123.1v75.4h-75.4v-75.4H2290.7z
					 M2139.9,123.1v75.4h-75.4v-75.4H2139.9z M1913.8,123.1h75.4v75.4h-75.4V123.1L1913.8,123.1z M1913.8,273.8h376.9v452.3h-376.9
					V273.8z M1913.8,876.9v-75.4h75.4v75.4H1913.8z M2064.6,876.9v-75.4h75.4v75.4H2064.6z M2215.3,876.9v-75.4h75.4v75.4H2215.3z
					 M2366.1,876.9v-75.4h75.4v75.4H2366.1z M2516.9,876.9v-75.4h75.4v75.4H2516.9z M2667.6,876.9v-75.4h75.4v75.4H2667.6z"/>
			</g>
		</g>
	</g>
</g>
</svg>
